<svg width="13" height="16" viewBox="0 0 13 16" fill="none" xmlns="http://www.w3.org/2000/svg">
<path d="M11.65 5.8635L5.68872 1.49225C5.22311 1.1513 4.67219 0.945941 4.09701 0.898935C3.52184 0.851929 2.94488 0.965111 2.43009 1.22594C1.9153 1.48676 1.48279 1.88504 1.1805 2.37663C0.878208 2.86821 0.717944 3.4339 0.717472 4.011V12.7579C0.716574 13.3355 0.876 13.9021 1.178 14.3945C1.48001 14.887 1.91274 15.2859 2.42803 15.547C2.94332 15.8081 3.52096 15.921 4.09664 15.8733C4.67232 15.8256 5.22347 15.619 5.68872 15.2766L11.65 10.9054C12.0455 10.6151 12.3672 10.2358 12.5889 9.79806C12.8106 9.36037 12.9261 8.87663 12.9261 8.386C12.9261 7.89536 12.8106 7.41162 12.5889 6.97393C12.3672 6.53624 12.0455 6.1569 11.65 5.86662V5.8635Z" fill="#DA131D"/>
</svg>
